<svg xmlns="http://www.w3.org/2000/svg" width="82" height="31" viewBox="0 0 82 31">
    <g fill="#FFF" fill-rule="nonzero">
        <path d="M81.458 12.085c-.367-1.169-.877-2.226-1.594-3.148-.717-.923-1.594-1.59-2.63-2.091a4.69 4.69 0 0 0-.957-.398s-.111-.064-.215-.064c-.048 0-.104 0-.16-.055-.04 0-.095 0-.095-.056l-.757-.159c-.558-.095-1.276-.143-2.105-.095-1.227.055-2.311.318-3.268.763a8.035 8.035 0 0 0-2.63 2.083c-.717.922-1.227 1.932-1.594 3.157-.35 1.16-.51 2.48-.51 3.8 0 1.375.16 2.648.518 3.816a10.28 10.28 0 0 0 1.594 3.101 8.497 8.497 0 0 0 1.754 1.574c.303.207.558.358.876.51h.04s.048 0 .048.047c.064 0 .064.056.112.056.518.254 1.084.397 1.697.508 1.794.35 3.332.104 3.332.104.821-.104 1.594-.358 2.312-.668a7.772 7.772 0 0 0 2.67-2.083c.717-.859 1.227-1.932 1.594-3.1.35-1.17.51-2.442.51-3.817 0-1.368-.207-2.64-.518-3.817l-.024.032zm-12.012 1.113c.208-.795.463-1.566.821-2.178.359-.605.821-1.113 1.331-1.463A3.13 3.13 0 0 1 73.392 9c.67 0 1.235.143 1.753.501.51.35.917.795 1.276 1.368.358.612.621 1.272.82 2.083.216.81.32 1.63.32 2.544v.302c0 .914-.104 1.829-.256 2.64-.207.819-.462 1.526-.82 2.147A4.487 4.487 0 0 1 75.144 22c-.51.358-1.116.509-1.793.509-.67 0-1.275-.16-1.793-.51a4.382 4.382 0 0 1-1.34-1.43c-.366-.605-.621-1.312-.828-2.131-.2-.811-.256-1.726-.256-2.64.056-.874.16-1.78.32-2.592l-.009-.008zM56.207 27.995l1.993-2.282v-8.5l4.224-2.178.096.874V27.39L59.284 31h-3.077L56 28.201l.207-.206z"/>
        <path d="M62.46 11.458c-.37-1.156-.885-2.202-1.61-3.114-.725-.912-1.61-1.573-2.657-2.068a4.794 4.794 0 0 0-.967-.394s-.113-.063-.217-.063c-.049 0-.097 0-.161-.055-.04 0-.097 0-.097-.055l-.765-.157c-.564-.094-1.288-.141-2.126-.094-1.24.055-2.335.314-3.301.755a8.093 8.093 0 0 0-2.658 2.06c-.725.912-1.24 1.911-1.61 3.122-.355 1.148-.508 2.454-.508 3.76 0 1.36.161 2.618.516 3.774.37 1.156.942 2.202 1.61 3.067a8.736 8.736 0 0 0 1.772 1.557c.306.204.564.354.886.503h.04s.056 0 .056.047c.049 0 .049.056.105.056.515.251 1.087.393 1.707.503 1.812.346 3.366.102 3.366.102.83-.102 1.61-.354 2.335-.66a7.755 7.755 0 0 0 2.698-2.06c.725-.85 1.24-1.912 1.61-3.068.355-1.156.516-2.414.516-3.775 0-1.352-.161-2.61-.523-3.774l-.017.031zm-12.079 1.101c.202-.786.46-1.55.822-2.155.362-.597.83-1.1 1.353-1.447a3.154 3.154 0 0 1 1.811-.55c.677 0 1.249.141 1.772.495.507.346.926.787 1.289 1.353.362.605.62 1.258.829 2.06a9.76 9.76 0 0 1 .322 2.517v.299c0 .904-.113 1.808-.274 2.61-.201.81-.467 1.51-.83 2.124a4.435 4.435 0 0 1-1.336 1.4c-.515.353-1.143.503-1.812.503-.684 0-1.304-.157-1.828-.503a4.437 4.437 0 0 1-1.345-1.416c-.362-.598-.62-1.298-.829-2.108-.21-.802-.258-1.706-.258-2.61.057-.866.113-1.762.322-2.564l-.008-.008zM38.963 5.536h4.348V25h-4.348V5.52v.016zm-8.697-2.532l2.013 2.218v8.454l4.268 2.202.096-.645V3.617L33.31.047 30.21 0 30 2.815l.266.19z"/>
        <path d="M35.983 12.347c-.366-1.179-.877-2.245-1.594-3.176-.718-.93-1.595-1.603-2.631-2.109a4.67 4.67 0 0 0-.957-.4s-.112-.065-.215-.065c-.048 0-.104 0-.16-.056-.048 0-.096 0-.096-.056l-.765-.16a9.352 9.352 0 0 0-2.097-.097c-1.228.057-2.312.321-3.269.77A8.05 8.05 0 0 0 21.568 9.1c-.718.93-1.228 1.949-1.595 3.184-.35 1.17-.51 2.502-.51 3.833 0 1.387.16 2.67.518 3.849a10.219 10.219 0 0 0 1.595 3.127 8.524 8.524 0 0 0 1.754 1.588c.303.209.917.513.917.513s.048 0 .048.048c.063 0 .063.056.111.056.519.257 1.077.401 1.699.514 1.794.353 3.332.104 3.332.104.822-.104 1.595-.36 2.313-.674a7.784 7.784 0 0 0 2.67-2.1c.718-.867 1.229-1.95 1.595-3.128.351-1.179.503-2.462.503-3.85 0-1.378-.2-2.661-.51-3.848l-.025.032zM23.968 13.47c.207-.802.462-1.58.821-2.198.359-.61.821-1.122 1.332-1.475a3.114 3.114 0 0 1 1.794-.562c.67 0 1.235.145 1.754.506.51.353.917.802 1.275 1.379.36.617.614 1.283.822 2.1.215.819.319 1.645.319 2.567v.305c0 .922-.104 1.844-.256 2.662-.207.826-.462 1.54-.82 2.165a4.51 4.51 0 0 1-1.34 1.428c-.51.36-1.117.513-1.794.513-.67 0-1.276-.16-1.794-.513a4.405 4.405 0 0 1-1.34-1.444c-.367-.61-.622-1.323-.83-2.149-.198-.818-.254-1.74-.254-2.662.056-.882.16-1.797.319-2.614l-.008-.008zm-7.447-1.123c-.367-1.179-.877-2.245-1.595-3.176-.718-.93-1.595-1.603-2.631-2.109a4.67 4.67 0 0 0-.957-.4s-.112-.065-.215-.065c-.048 0-.096 0-.16-.056-.04 0-.095 0-.095-.056l-.758-.16a9.399 9.399 0 0 0-2.105-.097c-1.228.057-2.312.321-3.269.77A8.05 8.05 0 0 0 2.105 9.1c-.718.93-1.228 1.949-1.595 3.184-.35 1.17-.51 2.502-.51 3.833 0 1.387.16 2.67.518 3.849.367 1.227.877 2.245 1.595 3.127a8.734 8.734 0 0 0 1.754 1.588c.303.209.558.36.877.513h.04s.056 0 .056.048c.048.056.048.056.095.056.519.257 1.085.401 1.699.514 1.794.353 3.333.104 3.333.104.82-.104 1.594-.36 2.312-.674a7.71 7.71 0 0 0 2.67-2.1c.719-.867 1.229-1.95 1.596-3.128.35-1.179.51-2.462.51-3.85 0-1.378-.16-2.661-.518-3.848l-.016.032zM4.56 13.47c.2-.802.454-1.58.813-2.198.359-.61.821-1.122 1.34-1.475a3.06 3.06 0 0 1 1.794-.562c.67 0 1.235.145 1.754.506.502.353.917.802 1.275 1.379.36.617.614 1.283.822 2.1.207.819.319 1.645.319 2.567l-.016.305c0 .922-.096 1.844-.256 2.662-.199.826-.462 1.54-.82 2.165a4.467 4.467 0 0 1-1.324 1.428c-.51.36-1.133.513-1.794.513-.678 0-1.292-.16-1.81-.513a4.47 4.47 0 0 1-1.332-1.444c-.319-.505-.558-1.219-.773-2.085-.208-.826-.263-1.764-.263-2.678 0-.922.055-1.845.255-2.662l.016-.008zM39.013 3.005A2 2 0 0 1 41.007 1 2 2 0 0 1 43 3.005a2 2 0 0 1-1.993 2.004c-1.1.049-1.994-.842-1.994-2.004z"/>
    </g>
</svg>
